{
	"asset":{
		"version":"2.0",
		"generator":"Created using the official Cinema 4D glTF Exporter 1.000x284978"
	},
	"scenes":[{
		"nodes":[0]
	}],
	"nodes":[{
		"name":"NINA",
		"children":[1,
		2]
	},
	{
		"name":"SEDILE",
		"translation":[-0.0007609634194523096,
		0.05067586898803711,
		-0.03828797489404678],
		"rotation":[0.0,
		0.0,
		0.0,
		-1.0],
		"scale":[1.0,
		1.0,
		1.0],
		"mesh":0
	},
	{
		"name":"SCOCCA",
		"translation":[-0.1527450829744339,
		0.1956273764371872,
		0.017500976100564004],
		"rotation":[0.0,
		0.0,
		0.0,
		-1.0],
		"scale":[1.0,
		1.0,
		1.0],
		"mesh":1
	}],
	"materials":[{
		"pbrMetallicRoughness":{
			"baseColorFactor":[0.64,
			0.6240000000000001,
			0.48,
			1.0],
			"metallicFactor":0.0,
			"roughnessFactor":0.71
		},
		"emissiveFactor":[0.0,
		0.0,
		0.0],
		"alphaMode":"OPAQUE",
		"doubleSided":true,
		"name":"POLIURETANO C4D"
	}],
	"meshes":[{
		"name":"SEDILE",
		"primitives":[{
			"attributes":{
				"POSITION":1,
				"NORMAL":2,
				"TEXCOORD_0":3
			},
			"indices":0,
			"material":0
		}]
	},
	{
		"name":"SCOCCA",
		"primitives":[{
			"attributes":{
				"POSITION":5,
				"NORMAL":6,
				"TEXCOORD_0":7
			},
			"indices":4,
			"material":0
		}]
	}],
	"accessors":[{
		"bufferView":0,
		"type":"SCALAR",
		"count":52272,
		"componentType":5123,
		"byteOffset":0,
		"min":[0],
		"max":[9050]
	},
	{
		"bufferView":1,
		"type":"VEC3",
		"count":9051,
		"componentType":5126,
		"byteOffset":0,
		"min":[-0.22514158487319947,
		-0.028083041310310365,
		-0.23148374259471894],
		"max":[0.22514013946056367,
		0.02803035080432892,
		0.23147930204868318]
	},
	{
		"bufferView":1,
		"type":"VEC3",
		"count":9051,
		"componentType":5126,
		"byteOffset":12,
		"min":[-0.9999971389770508,
		-0.9994786977767944,
		-0.9988598823547363],
		"max":[0.9999980926513672,
		0.9999933242797852,
		0.9994050860404968]
	},
	{
		"bufferView":1,
		"type":"VEC2",
		"count":9051,
		"componentType":5126,
		"byteOffset":24,
		"min":[0.00390625,
		-0.0550842359662056],
		"max":[1.0687445402145386,
		0.99609375]
	},
	{
		"bufferView":2,
		"type":"SCALAR",
		"count":172038,
		"componentType":5123,
		"byteOffset":0,
		"min":[0],
		"max":[29732]
	},
	{
		"bufferView":3,
		"type":"VEC3",
		"count":29733,
		"componentType":5126,
		"byteOffset":0,
		"min":[-0.1518600434064865,
		-0.2085602581501007,
		-0.28746405243873598],
		"max":[0.4558585584163666,
		0.20828552544116975,
		0.28736835718154909]
	},
	{
		"bufferView":3,
		"type":"VEC3",
		"count":29733,
		"componentType":5126,
		"byteOffset":12,
		"min":[-1.0,
		-1.0,
		-0.9999681711196899],
		"max":[1.0,
		0.9996475577354431,
		0.9996506571769714]
	},
	{
		"bufferView":3,
		"type":"VEC2",
		"count":29733,
		"componentType":5126,
		"byteOffset":24,
		"min":[0.00390625,
		0.01840735226869583],
		"max":[0.8918713331222534,
		0.99609375]
	}],
	"bufferViews":[{
		"buffer":0,
		"byteOffset":0,
		"byteLength":104544,
		"target":34963
	},
	{
		"buffer":0,
		"byteOffset":104544,
		"byteLength":289632,
		"target":34962,
		"byteStride":32
	},
	{
		"buffer":1,
		"byteOffset":0,
		"byteLength":344076,
		"target":34963
	},
	{
		"buffer":1,
		"byteOffset":344076,
		"byteLength":951456,
		"target":34962,
		"byteStride":32
	}],
	"buffers":[{
		"uri":"data:application/octet-stream;base64,",
		"byteLength":394176
	},
	{
		"uri":"data:application/octet-stream;base64,",
		"byteLength":1295532
	}]
}