{
	"asset":{
		"version":"2.0",
		"generator":"Created using the official Cinema 4D glTF Exporter 1.000x284978"
	},
	"textures":[{
		"sampler":0,
		"source":0
	},
	{
		"sampler":1,
		"source":1
	},
	{
		"sampler":2,
		"source":2
	},
	{
		"sampler":3,
		"source":3
	}],
	"scenes":[{
		"nodes":[0]
	}],
	"nodes":[{
		"name":"L12_okay_rip3",
		"translation":[-0.0005006356514059007,
		0.3942389488220215,
		0.04204704239964485],
		"rotation":[-0.7071067690849304,
		0.0,
		0.0,
		-0.7071067690849304],
		"scale":[1.0,
		1.0,
		1.0],
		"children":[1,
		2,
		3,
		4,
		9]
	},
	{
		"name":"PIASTRA",
		"translation":[-3.4570692974966734e-9,
		0.125,
		0.002749999985098839],
		"rotation":[0.0,
		0.0,
		0.0,
		-1.0],
		"scale":[1.0,
		1.0,
		1.0],
		"mesh":0
	},
	{
		"name":"TONDINO_1",
		"translation":[0.15044622123241425,
		0.08281361311674118,
		0.04877761751413345],
		"rotation":[0.0,
		0.0,
		0.0,
		-1.0],
		"scale":[1.0,
		1.0,
		1.0],
		"mesh":1
	},
	{
		"name":"TONDINO_2",
		"translation":[-0.15046162903308869,
		0.08278629183769226,
		0.048780348151922229],
		"rotation":[0.0,
		0.0,
		0.0,
		-1.0],
		"scale":[1.0,
		1.0,
		1.0],
		"mesh":2
	},
	{
		"name":"GAMBE",
		"translation":[-0.000008819222784950398,
		0.0827452763915062,
		0.1898515522480011],
		"rotation":[0.0,
		0.0,
		0.0,
		-1.0],
		"scale":[1.0,
		1.0,
		1.0],
		"children":[5,
		6,
		7,
		8]
	},
	{
		"name":"GAMBA_1wood_change_texture_",
		"translation":[0.20349909365177155,
		-0.19925805926322938,
		0.0004566898278426379],
		"rotation":[0.7071067690849304,
		0.0,
		0.0,
		-0.7071067690849304],
		"scale":[1.0,
		1.0,
		1.0],
		"mesh":3
	},
	{
		"name":"GAMBA_2wood_change_texture_",
		"translation":[-0.20349909365177155,
		-0.1992361843585968,
		0.0004510059370659292],
		"rotation":[0.7071067690849304,
		0.0,
		0.0,
		-0.7071067690849304],
		"scale":[1.0,
		1.0,
		1.0],
		"mesh":4
	},
	{
		"name":"GAMBA_3wood_change_texture_",
		"translation":[-0.1606522649526596,
		0.19924212992191316,
		-0.0004566898278426379],
		"rotation":[0.7071067690849304,
		0.0,
		0.0,
		-0.7071067690849304],
		"scale":[1.0,
		1.0,
		1.0],
		"mesh":5
	},
	{
		"name":"GAMBA_4wood_change_texture_",
		"translation":[0.16064731776714326,
		0.19925805926322938,
		-0.0004537296190392226],
		"rotation":[0.7071067690849304,
		0.0,
		0.0,
		-0.7071067690849304],
		"scale":[1.0,
		1.0,
		1.0],
		"mesh":6
	},
	{
		"name":"TAPPINI",
		"translation":[0.000001250386276296922,
		0.0830007791519165,
		0.3899645209312439],
		"rotation":[0.0,
		0.0,
		0.0,
		-1.0],
		"scale":[1.0,
		1.0,
		1.0],
		"children":[10,
		11,
		12,
		13]
	},
	{
		"name":"TAPPINO_1",
		"translation":[0.19255012273788453,
		0.2400791198015213,
		0.00002062237217614893],
		"rotation":[0.0,
		0.0,
		0.0,
		-1.0],
		"scale":[1.0,
		1.0,
		1.0],
		"mesh":7
	},
	{
		"name":"TAPPINO_2",
		"translation":[-0.24257110059261323,
		-0.24004621803760529,
		-0.000024046539692790249],
		"rotation":[0.0,
		0.0,
		0.0,
		-1.0],
		"scale":[1.0,
		1.0,
		1.0],
		"mesh":8
	},
	{
		"name":"TAPPINO_3",
		"translation":[0.24257110059261323,
		-0.2400791347026825,
		-0.00002360355938435532],
		"rotation":[0.0,
		0.0,
		0.0,
		-1.0],
		"scale":[1.0,
		1.0,
		1.0],
		"mesh":9
	},
	{
		"name":"TAPPINO_4",
		"translation":[-0.19255702197551728,
		0.2400791347026825,
		0.000024046539692790249],
		"rotation":[0.0,
		0.0,
		0.0,
		-1.0],
		"scale":[1.0,
		1.0,
		1.0],
		"mesh":10
	}],
	"samplers":[{
		"magFilter":9729,
		"minFilter":9729,
		"wrapS":10497,
		"wrapT":10497
	},
	{
		"magFilter":9729,
		"minFilter":9729,
		"wrapS":10497,
		"wrapT":10497
	},
	{
		"magFilter":9729,
		"minFilter":9729,
		"wrapS":10497,
		"wrapT":10497
	},
	{
		"magFilter":9729,
		"minFilter":9729,
		"wrapS":10497,
		"wrapT":10497
	}],
	"meshes":[{
		"name":"PIASTRA",
		"primitives":[{
			"attributes":{
				"POSITION":1,
				"NORMAL":2,
				"TEXCOORD_0":3
			},
			"indices":0,
			"material":0
		}]
	},
	{
		"name":"TONDINO_1",
		"primitives":[{
			"attributes":{
				"POSITION":5,
				"NORMAL":6,
				"TEXCOORD_0":7
			},
			"indices":4,
			"material":0
		}]
	},
	{
		"name":"TONDINO_2",
		"primitives":[{
			"attributes":{
				"POSITION":9,
				"NORMAL":10,
				"TEXCOORD_0":11
			},
			"indices":8,
			"material":0
		}]
	},
	{
		"name":"GAMBA_1wood_change_texture_",
		"primitives":[{
			"attributes":{
				"POSITION":13,
				"NORMAL":14,
				"TEXCOORD_0":15
			},
			"indices":12,
			"material":1
		}]
	},
	{
		"name":"GAMBA_2wood_change_texture_",
		"primitives":[{
			"attributes":{
				"POSITION":17,
				"NORMAL":18,
				"TEXCOORD_0":19
			},
			"indices":16,
			"material":1
		}]
	},
	{
		"name":"GAMBA_3wood_change_texture_",
		"primitives":[{
			"attributes":{
				"POSITION":21,
				"NORMAL":22,
				"TEXCOORD_0":23
			},
			"indices":20,
			"material":1
		}]
	},
	{
		"name":"GAMBA_4wood_change_texture_",
		"primitives":[{
			"attributes":{
				"POSITION":25,
				"NORMAL":26,
				"TEXCOORD_0":27
			},
			"indices":24,
			"material":1
		}]
	},
	{
		"name":"TAPPINO_1",
		"primitives":[{
			"attributes":{
				"POSITION":29,
				"NORMAL":30,
				"TEXCOORD_0":31
			},
			"indices":28,
			"material":2
		}]
	},
	{
		"name":"TAPPINO_2",
		"primitives":[{
			"attributes":{
				"POSITION":33,
				"NORMAL":34,
				"TEXCOORD_0":35
			},
			"indices":32,
			"material":2
		}]
	},
	{
		"name":"TAPPINO_3",
		"primitives":[{
			"attributes":{
				"POSITION":37,
				"NORMAL":38,
				"TEXCOORD_0":39
			},
			"indices":36,
			"material":2
		}]
	},
	{
		"name":"TAPPINO_4",
		"primitives":[{
			"attributes":{
				"POSITION":41,
				"NORMAL":42,
				"TEXCOORD_0":43
			},
			"indices":40,
			"material":2
		}]
	}],
	"accessors":[{
		"bufferView":0,
		"componentType":5123,
		"type":"SCALAR",
		"count":2592,
		"byteOffset":0,
		"min":[0],
		"max":[865]
	},
	{
		"bufferView":1,
		"componentType":5126,
		"type":"VEC3",
		"count":866,
		"byteOffset":0,
		"min":[-0.125,
		-0.125,
		-0.002749999985098839],
		"max":[0.125,
		0.125,
		0.002749999985098839]
	},
	{
		"bufferView":1,
		"componentType":5126,
		"type":"VEC3",
		"count":866,
		"byteOffset":12,
		"min":[-0.9999998211860657,
		-0.999995231628418,
		-1.0],
		"max":[0.9999998211860657,
		0.9999952912330627,
		1.0]
	},
	{
		"bufferView":1,
		"componentType":5126,
		"type":"VEC2",
		"count":866,
		"byteOffset":24,
		"min":[0.16307316720485688,
		-0.0006172467255964875],
		"max":[0.7949273586273193,
		0.47109586000442507]
	},
	{
		"bufferView":2,
		"componentType":5123,
		"type":"SCALAR",
		"count":12012,
		"byteOffset":0,
		"min":[0],
		"max":[2105]
	},
	{
		"bufferView":3,
		"componentType":5126,
		"type":"VEC3",
		"count":2106,
		"byteOffset":0,
		"min":[-0.04741851985454559,
		-0.19289183616638184,
		-0.04327140375971794],
		"max":[0.04741851985454559,
		0.19289183616638184,
		0.04327140375971794]
	},
	{
		"bufferView":3,
		"componentType":5126,
		"type":"VEC3",
		"count":2106,
		"byteOffset":12,
		"min":[-0.9980165958404541,
		-0.9847292304039002,
		-0.9999985694885254],
		"max":[0.9979952573776245,
		0.9847524762153626,
		0.9999977350234985]
	},
	{
		"bufferView":3,
		"componentType":5126,
		"type":"VEC2",
		"count":2106,
		"byteOffset":24,
		"min":[0.00390625,
		0.3367994427680969],
		"max":[0.06673336029052735,
		0.99609375]
	},
	{
		"bufferView":4,
		"componentType":5123,
		"type":"SCALAR",
		"count":11550,
		"byteOffset":0,
		"min":[0],
		"max":[2027]
	},
	{
		"bufferView":5,
		"componentType":5126,
		"type":"VEC3",
		"count":2028,
		"byteOffset":0,
		"min":[-0.04741915687918663,
		-0.19286088645458222,
		-0.04327138513326645],
		"max":[0.04741915687918663,
		0.19286088645458222,
		0.04327138513326645]
	},
	{
		"bufferView":5,
		"componentType":5126,
		"type":"VEC3",
		"count":2028,
		"byteOffset":12,
		"min":[-0.9999988079071045,
		-0.9848079681396484,
		-0.9994351863861084],
		"max":[0.9954964518547058,
		0.9847276210784912,
		0.9999964833259583]
	},
	{
		"bufferView":5,
		"componentType":5126,
		"type":"VEC2",
		"count":2028,
		"byteOffset":24,
		"min":[0.07479571551084519,
		0.3360835313796997],
		"max":[0.13886640965938569,
		0.99609375]
	},
	{
		"bufferView":6,
		"componentType":5123,
		"type":"SCALAR",
		"count":9381,
		"byteOffset":0,
		"min":[0],
		"max":[1755]
	},
	{
		"bufferView":7,
		"componentType":5126,
		"type":"VEC3",
		"count":1756,
		"byteOffset":0,
		"min":[-0.05176612362265587,
		-0.20084048807621003,
		-0.05325719341635704],
		"max":[0.05176612362265587,
		0.20084048807621003,
		0.05325719341635704]
	},
	{
		"bufferView":7,
		"componentType":5126,
		"type":"VEC3",
		"count":1756,
		"byteOffset":12,
		"min":[-0.9866468906402588,
		-0.9701929688453674,
		-0.9886560440063477],
		"max":[0.989916980266571,
		0.9976820349693298,
		0.984921395778656]
	},
	{
		"bufferView":7,
		"componentType":5126,
		"type":"VEC2",
		"count":1756,
		"byteOffset":24,
		"min":[0.14301010966300965,
		0.4749547839164734],
		"max":[0.8399767279624939,
		0.99609375]
	},
	{
		"bufferView":8,
		"componentType":5123,
		"type":"SCALAR",
		"count":9531,
		"byteOffset":0,
		"min":[0],
		"max":[1762]
	},
	{
		"bufferView":9,
		"componentType":5126,
		"type":"VEC3",
		"count":1763,
		"byteOffset":0,
		"min":[-0.051769815385341647,
		-0.20084527134895326,
		-0.053292687982320788],
		"max":[0.051769815385341647,
		0.20084527134895326,
		0.053292687982320788]
	},
	{
		"bufferView":9,
		"componentType":5126,
		"type":"VEC3",
		"count":1763,
		"byteOffset":12,
		"min":[-0.9894028306007385,
		-0.9701752662658691,
		-0.9887281656265259],
		"max":[0.9860121011734009,
		0.9973558187484741,
		0.9850580096244812]
	},
	{
		"bufferView":9,
		"componentType":5126,
		"type":"VEC2",
		"count":1763,
		"byteOffset":24,
		"min":[0.496119886636734,
		0.47554534673690798],
		"max":[0.9875542521476746,
		0.99609375]
	},
	{
		"bufferView":10,
		"componentType":5123,
		"type":"SCALAR",
		"count":9339,
		"byteOffset":0,
		"min":[0],
		"max":[1727]
	},
	{
		"bufferView":11,
		"componentType":5126,
		"type":"VEC3",
		"count":1728,
		"byteOffset":0,
		"min":[-0.044687166810035709,
		-0.20147980749607087,
		-0.053782928735017779],
		"max":[0.044687166810035709,
		0.20147980749607087,
		0.053782928735017779]
	},
	{
		"bufferView":11,
		"componentType":5126,
		"type":"VEC3",
		"count":1728,
		"byteOffset":12,
		"min":[-0.9943835735321045,
		-0.975191593170166,
		-0.9839653968811035],
		"max":[0.9915531873703003,
		0.9985014200210571,
		0.9884518384933472]
	},
	{
		"bufferView":11,
		"componentType":5126,
		"type":"VEC2",
		"count":1728,
		"byteOffset":24,
		"min":[0.3338320553302765,
		0.47464674711227419],
		"max":[0.9211190938949585,
		0.99609375]
	},
	{
		"bufferView":12,
		"componentType":5123,
		"type":"SCALAR",
		"count":9513,
		"byteOffset":0,
		"min":[0],
		"max":[1756]
	},
	{
		"bufferView":13,
		"componentType":5126,
		"type":"VEC3",
		"count":1757,
		"byteOffset":0,
		"min":[-0.04473184794187546,
		-0.20147676765918733,
		-0.0537722110748291],
		"max":[0.04473184794187546,
		0.20147676765918733,
		0.0537722110748291]
	},
	{
		"bufferView":13,
		"componentType":5126,
		"type":"VEC3",
		"count":1757,
		"byteOffset":12,
		"min":[-0.9909398555755615,
		-0.9751967191696167,
		-0.9837603569030762],
		"max":[0.9943300485610962,
		0.9988774061203003,
		0.9884116053581238]
	},
	{
		"bufferView":13,
		"componentType":5126,
		"type":"VEC2",
		"count":1757,
		"byteOffset":24,
		"min":[0.2990560829639435,
		0.3240910768508911],
		"max":[0.9545547962188721,
		0.99609375]
	},
	{
		"bufferView":14,
		"componentType":5123,
		"type":"SCALAR",
		"count":1188,
		"byteOffset":0,
		"min":[0],
		"max":[249]
	},
	{
		"bufferView":15,
		"componentType":5126,
		"type":"VEC3",
		"count":250,
		"byteOffset":0,
		"min":[-0.011942845769226551,
		-0.011875650845468045,
		-0.004641556181013584],
		"max":[0.011942845769226551,
		0.011875650845468045,
		0.004641556181013584]
	},
	{
		"bufferView":15,
		"componentType":5126,
		"type":"VEC3",
		"count":250,
		"byteOffset":12,
		"min":[-0.9822478294372559,
		-0.9756043553352356,
		-0.9751801490783691],
		"max":[0.9995370507240295,
		0.9986414909362793,
		0.9955422878265381]
	},
	{
		"bufferView":15,
		"componentType":5126,
		"type":"VEC2",
		"count":250,
		"byteOffset":24,
		"min":[0.6798083186149597,
		0.8024303913116455],
		"max":[0.9424225687980652,
		0.914206862449646]
	},
	{
		"bufferView":16,
		"componentType":5123,
		"type":"SCALAR",
		"count":1188,
		"byteOffset":0,
		"min":[0],
		"max":[249]
	},
	{
		"bufferView":17,
		"componentType":5126,
		"type":"VEC3",
		"count":250,
		"byteOffset":0,
		"min":[-0.011867704801261425,
		-0.011847089044749737,
		-0.0048478227108716969],
		"max":[0.011867704801261425,
		0.011847089044749737,
		0.0048478227108716969]
	},
	{
		"bufferView":17,
		"componentType":5126,
		"type":"VEC3",
		"count":250,
		"byteOffset":12,
		"min":[-0.9994336366653442,
		-0.9959301352500916,
		-0.9701551795005798],
		"max":[0.9699000120162964,
		0.9738063216209412,
		0.9964076280593872]
	},
	{
		"bufferView":17,
		"componentType":5126,
		"type":"VEC2",
		"count":250,
		"byteOffset":24,
		"min":[0.14345595240592957,
		0.8022536039352417],
		"max":[0.8211504817008972,
		0.99609375]
	},
	{
		"bufferView":18,
		"componentType":5123,
		"type":"SCALAR",
		"count":1188,
		"byteOffset":0,
		"min":[0],
		"max":[249]
	},
	{
		"bufferView":19,
		"componentType":5126,
		"type":"VEC3",
		"count":250,
		"byteOffset":0,
		"min":[-0.011854177340865136,
		-0.011809042654931546,
		-0.004849404562264681],
		"max":[0.011854177340865136,
		0.011809042654931546,
		0.004849404562264681]
	},
	{
		"bufferView":19,
		"componentType":5126,
		"type":"VEC3",
		"count":250,
		"byteOffset":12,
		"min":[-0.977353572845459,
		-0.9903176426887512,
		-0.9701507091522217],
		"max":[0.9913257360458374,
		0.9741204977035523,
		0.9984793066978455]
	},
	{
		"bufferView":19,
		"componentType":5126,
		"type":"VEC2",
		"count":250,
		"byteOffset":24,
		"min":[0.67802494764328,
		0.7855774164199829],
		"max":[1.0003635883331299,
		0.9339872598648071]
	},
	{
		"bufferView":20,
		"componentType":5123,
		"type":"SCALAR",
		"count":1188,
		"byteOffset":0,
		"min":[0],
		"max":[249]
	},
	{
		"bufferView":21,
		"componentType":5126,
		"type":"VEC3",
		"count":250,
		"byteOffset":0,
		"min":[-0.011859454214572907,
		-0.011838475242257119,
		-0.004627841059118509],
		"max":[0.011859454214572907,
		0.011838475242257119,
		0.004627841059118509]
	},
	{
		"bufferView":21,
		"componentType":5126,
		"type":"VEC3",
		"count":250,
		"byteOffset":12,
		"min":[-0.9977844953536987,
		-0.9655748009681702,
		-0.9751823544502258],
		"max":[0.9750640392303467,
		0.9960372447967529,
		0.9967997670173645]
	},
	{
		"bufferView":21,
		"componentType":5126,
		"type":"VEC2",
		"count":250,
		"byteOffset":24,
		"min":[0.14256425201892854,
		0.7916308641433716],
		"max":[0.9771905541419983,
		0.9703363180160523]
	}],
	"bufferViews":[{
		"buffer":0,
		"byteOffset":0,
		"byteLength":5184,
		"target":34963
	},
	{
		"buffer":0,
		"byteOffset":5184,
		"byteLength":27712,
		"target":34962,
		"byteStride":32
	},
	{
		"buffer":1,
		"byteOffset":0,
		"byteLength":24024,
		"target":34963
	},
	{
		"buffer":1,
		"byteOffset":24024,
		"byteLength":67392,
		"target":34962,
		"byteStride":32
	},
	{
		"buffer":2,
		"byteOffset":0,
		"byteLength":23100,
		"target":34963
	},
	{
		"buffer":2,
		"byteOffset":23100,
		"byteLength":64896,
		"target":34962,
		"byteStride":32
	},
	{
		"buffer":3,
		"byteOffset":0,
		"byteLength":18762,
		"target":34963
	},
	{
		"buffer":3,
		"byteOffset":18764,
		"byteLength":56192,
		"target":34962,
		"byteStride":32
	},
	{
		"buffer":4,
		"byteOffset":0,
		"byteLength":19062,
		"target":34963
	},
	{
		"buffer":4,
		"byteOffset":19064,
		"byteLength":56416,
		"target":34962,
		"byteStride":32
	},
	{
		"buffer":5,
		"byteOffset":0,
		"byteLength":18678,
		"target":34963
	},
	{
		"buffer":5,
		"byteOffset":18680,
		"byteLength":55296,
		"target":34962,
		"byteStride":32
	},
	{
		"buffer":6,
		"byteOffset":0,
		"byteLength":19026,
		"target":34963
	},
	{
		"buffer":6,
		"byteOffset":19028,
		"byteLength":56224,
		"target":34962,
		"byteStride":32
	},
	{
		"buffer":7,
		"byteOffset":0,
		"byteLength":2376,
		"target":34963
	},
	{
		"buffer":7,
		"byteOffset":2376,
		"byteLength":8000,
		"target":34962,
		"byteStride":32
	},
	{
		"buffer":8,
		"byteOffset":0,
		"byteLength":2376,
		"target":34963
	},
	{
		"buffer":8,
		"byteOffset":2376,
		"byteLength":8000,
		"target":34962,
		"byteStride":32
	},
	{
		"buffer":9,
		"byteOffset":0,
		"byteLength":2376,
		"target":34963
	},
	{
		"buffer":9,
		"byteOffset":2376,
		"byteLength":8000,
		"target":34962,
		"byteStride":32
	},
	{
		"buffer":10,
		"byteOffset":0,
		"byteLength":2376,
		"target":34963
	},
	{
		"buffer":10,
		"byteOffset":2376,
		"byteLength":8000,
		"target":34962,
		"byteStride":32
	}],
	"buffers":[{
		"uri":"data:application/octet-stream;base64,",
		"byteLength":32896
	},
	{
		"uri":"data:application/octet-stream;base64,",
		"byteLength":91416
	},
	{
		"uri":"data:application/octet-stream;base64,",
		"byteLength":87996
	},
	{
		"uri":"data:application/octet-stream;base64,",
		"byteLength":74956
	},
	{
		"uri":"data:application/octet-stream;base64,",
		"byteLength":75480
	},
	{
		"uri":"data:application/octet-stream;base64,",
		"byteLength":73976
	},
	{
		"uri":"data:application/octet-stream;base64,",
		"byteLength":75252
	},
	{
		"uri":"data:application/octet-stream;base64,",
		"byteLength":10376
	},
	{
		"uri":"data:application/octet-stream;base64,",
		"byteLength":10376
	},
	{
		"uri":"data:application/octet-stream;base64,",
		"byteLength":10376
	},
	{
		"uri":"data:application/octet-stream;base64,",
		"byteLength":10376
	}],
	"images":[{
		"uri":"data:image/jpeg;base64,"
	},
	{
		"uri":"data:image/jpeg;base64,"
	},
	{
		"uri":"data:image/jpeg;base64,"
	},
	{
		"uri":"data:image/jpeg;base64,"
	}],
	"materials":[{
		"pbrMetallicRoughness":{
			"baseColorTexture":{
				"index":0
			},
			"baseColorFactor":[1.0,
			1.0,
			1.0,
			1.0],
			"metallicFactor":1.0,
			"roughnessFactor":0.15
		},
		"emissiveFactor":[0.0,
		0.0,
		0.0],
		"alphaMode":"OPAQUE",
		"doubleSided":true,
		"name":"metal_change_color_.1"
	},
	{
		"pbrMetallicRoughness":{
			"baseColorTexture":{
				"index":1
			},
			"baseColorFactor":[0.8,
			0.8,
			0.8,
			1.0],
			"metallicRoughnessTexture":{
				"index":2
			},
			"metallicFactor":0.0,
			"roughnessFactor":0.5
		},
		"normalTexture":{
			"index":3,
			"scale":0.6
		},
		"emissiveFactor":[0.0,
		0.0,
		0.0],
		"alphaMode":"OPAQUE",
		"doubleSided":true,
		"name":"wood_change_texture_"
	},
	{
		"pbrMetallicRoughness":{
			"baseColorFactor":[0.05,
			0.05,
			0.05,
			1.0],
			"metallicFactor":0.18,
			"roughnessFactor":1.0
		},
		"emissiveFactor":[0.0,
		0.0,
		0.0],
		"alphaMode":"OPAQUE",
		"doubleSided":true,
		"name":"rubber"
	}]
}