{
	"asset":{
		"version":"2.0",
		"generator":"Created using the official Cinema 4D glTF Exporter 1.000x284978"
	},
	"textures":[{
		"sampler":0,
		"source":0
	}],
	"scenes":[{
		"nodes":[0]
	}],
	"nodes":[{
		"name":"P15_okay",
		"translation":[0.0,
		0.0,
		0.0],
		"rotation":[-0.7071067690849304,
		0.0,
		0.0,
		-0.7071067690849304],
		"scale":[1.0,
		1.0,
		1.0],
		"children":[1,
		2,
		3,
		4]
	},
	{
		"name":"gambe_metal_change_color_",
		"translation":[-0.000977664953097701,
		-0.00009932093234965578,
		-0.18687979876995088],
		"rotation":[0.0,
		0.0,
		0.0,
		-1.0],
		"scale":[1.0,
		1.0,
		1.0],
		"mesh":0
	},
	{
		"name":"piastra_metal_change_color_",
		"translation":[7.629394893626796e-9,
		9.536743617033495e-10,
		-0.3698895275592804],
		"rotation":[0.0,
		0.0,
		0.0,
		-1.0],
		"scale":[1.0,
		1.0,
		1.0],
		"mesh":1
	},
	{
		"name":"tondino_metal_change_color_",
		"translation":[-0.00036516826367005706,
		-0.0003397874825168401,
		-0.257883220911026],
		"rotation":[0.0,
		0.0,
		0.0,
		-1.0],
		"scale":[1.0,
		1.0,
		1.0],
		"mesh":2
	},
	{
		"name":"piedini_metal_change_color_",
		"translation":[0.0,
		-1.3057051263105463e-16,
		-0.006971403025090694],
		"rotation":[0.7071067690849304,
		0.0,
		0.0,
		-0.7071067690849304],
		"scale":[1.0,
		1.0,
		1.0],
		"mesh":3
	}],
	"samplers":[{
		"magFilter":9729,
		"minFilter":9729,
		"wrapS":10497,
		"wrapT":10497
	}],
	"meshes":[{
		"name":"gambe_metal_change_color_",
		"primitives":[{
			"attributes":{
				"POSITION":1,
				"NORMAL":2
			},
			"indices":0,
			"material":0
		}]
	},
	{
		"name":"piastra_metal_change_color_",
		"primitives":[{
			"attributes":{
				"POSITION":4,
				"NORMAL":5
			},
			"indices":3,
			"material":0
		}]
	},
	{
		"name":"tondino_metal_change_color_",
		"primitives":[{
			"attributes":{
				"POSITION":7,
				"NORMAL":8
			},
			"indices":6,
			"material":0
		}]
	},
	{
		"name":"piedini_metal_change_color_",
		"primitives":[{
			"attributes":{
				"POSITION":10,
				"NORMAL":11
			},
			"indices":9,
			"material":0
		}]
	}],
	"accessors":[{
		"bufferView":0,
		"componentType":5123,
		"type":"SCALAR",
		"count":23940,
		"byteOffset":0,
		"min":[0],
		"max":[4027]
	},
	{
		"bufferView":1,
		"componentType":5126,
		"type":"VEC3",
		"count":4028,
		"byteOffset":0,
		"min":[-0.24696364998817445,
		-0.24808381497859956,
		-0.17949026823043824],
		"max":[0.24696364998817445,
		0.24808381497859956,
		0.17949026823043824]
	},
	{
		"bufferView":1,
		"componentType":5126,
		"type":"VEC3",
		"count":4028,
		"byteOffset":12,
		"min":[-0.9999890327453613,
		-0.9999954104423523,
		-0.9945819973945618],
		"max":[0.9994487166404724,
		0.9999954104423523,
		0.9998669028282166]
	},
	{
		"bufferView":2,
		"componentType":5123,
		"type":"SCALAR",
		"count":2580,
		"byteOffset":0,
		"min":[0],
		"max":[863]
	},
	{
		"bufferView":3,
		"componentType":5126,
		"type":"VEC3",
		"count":864,
		"byteOffset":0,
		"min":[-0.11999999731779099,
		-0.11999999731779099,
		-0.0024999999441206457],
		"max":[0.11999999731779099,
		0.11999999731779099,
		0.0024999999441206457]
	},
	{
		"bufferView":3,
		"componentType":5126,
		"type":"VEC3",
		"count":864,
		"byteOffset":12,
		"min":[-0.9999998211860657,
		-0.9999997615814209,
		-1.0],
		"max":[0.9999998211860657,
		0.9999997615814209,
		1.0]
	},
	{
		"bufferView":4,
		"componentType":5123,
		"type":"SCALAR",
		"count":33540,
		"byteOffset":0,
		"min":[0],
		"max":[5589]
	},
	{
		"bufferView":5,
		"componentType":5126,
		"type":"VEC3",
		"count":5590,
		"byteOffset":0,
		"min":[-0.1816931515932083,
		-0.19416503608226777,
		-0.06741853803396225],
		"max":[0.1816931515932083,
		0.19403687119483949,
		0.06748781353235245]
	},
	{
		"bufferView":5,
		"componentType":5126,
		"type":"VEC3",
		"count":5590,
		"byteOffset":12,
		"min":[-0.9999984502792358,
		-0.9907500743865967,
		-0.9900877475738525],
		"max":[0.9999984502792358,
		0.9901435971260071,
		0.9999998211860657]
	},
	{
		"bufferView":6,
		"componentType":5123,
		"type":"SCALAR",
		"count":5526,
		"byteOffset":0,
		"min":[0],
		"max":[1006]
	},
	{
		"bufferView":7,
		"componentType":5126,
		"type":"VEC3",
		"count":1007,
		"byteOffset":0,
		"min":[-0.2539962828159332,
		-0.007000000681728125,
		-0.25397831201553347],
		"max":[0.2539105713367462,
		0.00699878204613924,
		0.2539916932582855]
	},
	{
		"bufferView":7,
		"componentType":5126,
		"type":"VEC3",
		"count":1007,
		"byteOffset":12,
		"min":[-0.9964593648910523,
		-1.0,
		-0.9950131177902222],
		"max":[0.9941576719284058,
		0.9999802112579346,
		0.9949426054954529]
	}],
	"bufferViews":[{
		"buffer":0,
		"byteOffset":0,
		"byteLength":47880,
		"target":34963
	},
	{
		"buffer":0,
		"byteOffset":47880,
		"byteLength":96672,
		"target":34962,
		"byteStride":24
	},
	{
		"buffer":1,
		"byteOffset":0,
		"byteLength":5160,
		"target":34963
	},
	{
		"buffer":1,
		"byteOffset":5160,
		"byteLength":20736,
		"target":34962,
		"byteStride":24
	},
	{
		"buffer":2,
		"byteOffset":0,
		"byteLength":67080,
		"target":34963
	},
	{
		"buffer":2,
		"byteOffset":67080,
		"byteLength":134160,
		"target":34962,
		"byteStride":24
	},
	{
		"buffer":3,
		"byteOffset":0,
		"byteLength":11052,
		"target":34963
	},
	{
		"buffer":3,
		"byteOffset":11052,
		"byteLength":24168,
		"target":34962,
		"byteStride":24
	}],
	"buffers":[{
		"uri":"data:application/octet-stream;base64,",
		"byteLength":144552
	},
	{
		"uri":"data:application/octet-stream;base64,",
		"byteLength":25896
	},
	{
		"uri":"data:application/octet-stream;base64,",
		"byteLength":201240
	},
	{
		"uri":"data:application/octet-stream;base64,",
		"byteLength":35220
	}],
	"images":[{
		"uri":"data:image/jpeg;base64,"
	}],
	"materials":[{
		"pbrMetallicRoughness":{
			"baseColorTexture":{
				"index":0
			},
			"baseColorFactor":[1.0,
			1.0,
			1.0,
			1.0],
			"metallicFactor":1.0,
			"roughnessFactor":0.15
		},
		"emissiveFactor":[0.0,
		0.0,
		0.0],
		"alphaMode":"OPAQUE",
		"doubleSided":true,
		"name":"metal_change_color_"
	}]
}