{
	"asset":{
		"version":"2.0",
		"generator":"Created using the official Cinema 4D glTF Exporter 1.000x284978"
	},
	"scenes":[{
		"nodes":[0]
	}],
	"nodes":[{
		"name":"NINA",
		"children":[1,
		2]
	},
	{
		"name":"SEDILE",
		"translation":[-0.000007926397302071564,
		-0.07239343971014023,
		-0.038290198892354968],
		"rotation":[0.0,
		0.0,
		0.0,
		-1.0],
		"scale":[1.0,
		1.0,
		1.0],
		"mesh":0
	},
	{
		"name":"SCOCCA",
		"translation":[0.000007926397302071564,
		0.07239343971014023,
		0.01743706315755844],
		"rotation":[0.0,
		0.0,
		0.0,
		-1.0],
		"scale":[1.0,
		1.0,
		1.0],
		"mesh":1
	}],
	"meshes":[{
		"name":"SEDILE",
		"primitives":[{
			"attributes":{
				"POSITION":1,
				"NORMAL":2,
				"TEXCOORD_0":3
			},
			"indices":0,
			"material":0
		}]
	},
	{
		"name":"SCOCCA",
		"primitives":[{
			"attributes":{
				"POSITION":5,
				"NORMAL":6,
				"TEXCOORD_0":7
			},
			"indices":4,
			"material":0
		}]
	}],
	"accessors":[{
		"bufferView":0,
		"componentType":5123,
		"type":"SCALAR",
		"count":52272,
		"byteOffset":0,
		"min":[0],
		"max":[9050]
	},
	{
		"bufferView":1,
		"componentType":5126,
		"type":"VEC3",
		"count":9051,
		"byteOffset":0,
		"min":[-0.22514085471630097,
		-0.02805669605731964,
		-0.23148152232170106],
		"max":[0.22514085471630097,
		0.02805669605731964,
		0.23148152232170106]
	},
	{
		"bufferView":1,
		"componentType":5126,
		"type":"VEC3",
		"count":9051,
		"byteOffset":12,
		"min":[-0.9999971389770508,
		-0.9994786977767944,
		-0.9988606572151184],
		"max":[0.9999980926513672,
		0.9999933242797852,
		0.9994050860404968]
	},
	{
		"bufferView":1,
		"componentType":5126,
		"type":"VEC2",
		"count":9051,
		"byteOffset":24,
		"min":[0.00390625,
		-0.0550842359662056],
		"max":[1.0687445402145386,
		0.99609375]
	},
	{
		"bufferView":2,
		"componentType":5123,
		"type":"SCALAR",
		"count":172038,
		"byteOffset":0,
		"min":[0],
		"max":[29732]
	},
	{
		"bufferView":3,
		"componentType":5126,
		"type":"VEC3",
		"count":29733,
		"byteOffset":0,
		"min":[-0.30385929346084597,
		-0.20836928486824037,
		-0.28740012645721438],
		"max":[0.30385929346084597,
		0.20836928486824037,
		0.28740012645721438]
	},
	{
		"bufferView":3,
		"componentType":5126,
		"type":"VEC3",
		"count":29733,
		"byteOffset":12,
		"min":[-0.999998152256012,
		-1.0,
		-0.9999682903289795],
		"max":[0.999998152256012,
		0.9999266266822815,
		0.9995651245117188]
	},
	{
		"bufferView":3,
		"componentType":5126,
		"type":"VEC2",
		"count":29733,
		"byteOffset":24,
		"min":[0.00390625,
		0.01840735226869583],
		"max":[0.8918713331222534,
		0.99609375]
	}],
	"bufferViews":[{
		"buffer":0,
		"byteOffset":0,
		"byteLength":104544,
		"target":34963
	},
	{
		"buffer":0,
		"byteOffset":104544,
		"byteLength":289632,
		"target":34962,
		"byteStride":32
	},
	{
		"buffer":1,
		"byteOffset":0,
		"byteLength":344076,
		"target":34963
	},
	{
		"buffer":1,
		"byteOffset":344076,
		"byteLength":951456,
		"target":34962,
		"byteStride":32
	}],
	"buffers":[{
		"uri":"data:application/octet-stream;base64,",
		"byteLength":394176
	},
	{
		"uri":"data:application/octet-stream;base64,",
		"byteLength":1295532
	}],
	"materials":[{
		"pbrMetallicRoughness":{
			"baseColorFactor":[0.53,
			0.5208133333333334,
			0.4611,
			1.0],
			"metallicFactor":0.0,
			"roughnessFactor":0.71
		},
		"emissiveFactor":[0.0,
		0.0,
		0.0],
		"alphaMode":"OPAQUE",
		"doubleSided":true,
		"name":"_poliuretano_"
	}]
}